<svg xmlns="http://www.w3.org/2000/svg" width="512" height="512" viewBox="0 0 512 512" version="1.1">
	<path d="M 239.500 1.538 C 235.031 3.762, 212.340 21.501, 197.781 34.152 C 127.785 94.976, 91.128 170.998, 96.788 243.600 C 97.427 251.795, 98.888 262.387, 100.035 267.138 L 102.119 275.776 98.072 287.668 C 76.251 351.788, 92.820 419.724, 141.520 465.814 C 174.802 497.312, 217.169 513.253, 263.500 511.711 C 351.316 508.787, 421.206 439.305, 425.656 350.500 C 426.694 329.778, 423.785 310.117, 416.458 288.330 L 412.029 275.159 413.950 267.330 C 417.420 253.184, 418.270 243.750, 417.743 225.197 C 417.174 205.120, 414.967 194.291, 408.666 180.654 C 397.609 156.722, 380.889 140.874, 338.342 114 C 312.686 97.795, 300.596 88.800, 289.416 77.600 C 272.527 60.682, 263.426 43.505, 259.426 21 C 257.082 7.814, 255.922 4.849, 252.102 2.283 C 248.194 -0.343, 243.801 -0.602, 239.500 1.538 M 138.219 11.672 C 135.423 12.796, 131.696 22.370, 131.218 29.657 C 130.414 41.928, 135.762 55, 141.588 55 C 144.245 55, 147.809 52.715, 148.905 50.309 C 149.804 48.336, 149.625 46.524, 148.015 41.314 C 145.476 33.094, 145.479 29.431, 148.029 23.667 C 150.345 18.431, 149.895 14.740, 146.663 12.477 C 144.591 11.026, 140.742 10.659, 138.219 11.672 M 310.644 15.066 C 307.278 17.713, 304.538 26.708, 305.419 32.218 C 305.768 34.399, 307.005 38.050, 308.170 40.332 C 310.030 43.979, 310.148 44.998, 309.143 48.755 C 306.736 57.755, 308.768 62.333, 315.171 62.333 C 323.705 62.333, 327.866 46.700, 322.437 35.035 C 319.948 29.688, 319.929 29.476, 321.548 25.236 C 323.527 20.053, 322.355 15.939, 318.385 14.130 C 314.916 12.549, 313.648 12.702, 310.644 15.066 M 381.602 34.888 C 378.832 37.948, 375.890 46.920, 375.284 54.157 C 374.617 62.109, 376.071 70.396, 379.670 79.156 C 383.323 88.045, 383.327 97.137, 379.682 106.078 C 378.207 109.697, 377 113.359, 377 114.218 C 377 116.808, 380.302 119.956, 383.710 120.614 C 388.230 121.487, 392.004 117.455, 395.061 108.487 C 398.870 97.313, 398.459 86.406, 393.720 72.898 C 389.503 60.880, 389.169 56.047, 392 48 C 394.487 40.929, 394.487 37.487, 392 35 C 389.415 32.415, 383.893 32.355, 381.602 34.888 M 92.644 69.066 C 86.476 73.917, 84.832 91.301, 89.400 103.369 C 92.503 111.568, 92.682 117.900, 89.978 123.859 C 86.867 130.715, 87.442 134.143, 92.108 136.556 C 99.552 140.405, 105.941 131.666, 106.770 116.500 C 107.140 109.730, 106.807 107.359, 104.604 101.076 C 101.626 92.585, 101.274 85.308, 103.532 78.910 C 105.364 73.716, 104.247 69.889, 100.385 68.130 C 96.916 66.549, 95.648 66.702, 92.644 69.066 M 210.987 84.778 C 170.500 126.221, 147.716 168.852, 143.160 211.687 C 142.296 219.813, 142.014 219.762, 150 212.914 C 158.312 205.786, 171.345 197.389, 182.500 191.972 C 242.905 162.645, 312.861 170.807, 364.794 213.241 C 371.737 218.913, 372.059 219.063, 371.468 216.350 C 365.741 190.038, 357.070 180.738, 310.500 150.960 C 298.950 143.574, 285.024 134.166, 279.553 130.052 C 261.115 116.188, 243.012 97.106, 233.966 82 C 229.823 75.083, 227.091 72.004, 225.076 71.984 C 224.209 71.976, 217.869 77.733, 210.987 84.778 M 232.834 220.047 C 220.289 222.721, 209.817 226.455, 198.962 232.124 C 147.954 258.766, 121.539 316.723, 134.948 372.578 C 151.891 443.154, 224.708 484.654, 294.500 463.511 C 304.867 460.371, 320.527 452.618, 330 445.937 C 345.205 435.214, 361.360 416.353, 369.775 399.500 C 373.926 391.187, 378.423 378.098, 380.597 368 C 382.811 357.711, 383.104 331.066, 381.112 321 C 373.362 281.824, 347.961 248.022, 313.500 231.025 C 301.370 225.042, 293.588 222.402, 280.715 219.901 C 267.646 217.362, 245.108 217.431, 232.834 220.047 M 253.321 245.189 C 250.292 246.653, 248.633 251.229, 249.308 256.259 C 250.834 267.636, 265 266.163, 265 254.627 C 265 248.749, 264.319 247.216, 260.928 245.463 C 257.666 243.776, 256.342 243.728, 253.321 245.189 M 187.174 273.314 C 183.888 276.812, 184.323 281.291, 188.377 285.715 C 192.569 290.288, 198.059 290.880, 201.129 287.089 C 204.328 283.138, 203.579 278.756, 198.997 274.616 C 194.246 270.324, 190.384 269.898, 187.174 273.314 M 314.882 274.882 C 309.460 280.304, 309.574 285.694, 315.171 288.589 C 318.680 290.403, 321.466 289.732, 325.351 286.138 C 329.109 282.660, 330.204 279.666, 328.936 276.331 C 326.460 269.819, 320.554 269.210, 314.882 274.882 M 251.923 287.923 L 249 290.846 249 318.469 L 249 346.091 251.455 348.545 C 253.857 350.948, 254.249 351, 270 351 C 285.751 351, 286.143 350.948, 288.545 348.545 C 291.647 345.444, 291.670 341.890, 288.612 338.335 C 286.330 335.683, 285.751 335.541, 275.612 335.166 L 265 334.773 265 312.810 L 265 290.846 262.077 287.923 C 260.469 286.315, 258.185 285, 257 285 C 255.815 285, 253.531 286.315, 251.923 287.923 M 164.500 335.686 C 158.302 337.279, 155.934 344.711, 160.314 348.826 C 163.761 352.063, 172.183 351.908, 175.545 348.545 C 178.604 345.487, 178.679 341.869, 175.750 338.601 C 173.468 336.055, 168.286 334.713, 164.500 335.686 M 342.270 335.703 C 338.755 336.382, 335.737 340.916, 336.425 344.484 C 337.298 349.017, 340.345 351, 346.436 351 C 350.595 351, 352.092 350.531, 353.826 348.686 C 357.814 344.441, 356.301 337.998, 350.872 336.105 C 347.665 334.987, 346.305 334.924, 342.270 335.703 M 189.003 400.616 C 185.665 403.632, 185 404.866, 185 408.044 C 185 410.970, 185.612 412.336, 187.635 413.927 C 191.429 416.912, 194.438 416.503, 198.997 412.384 C 202.335 409.368, 203 408.134, 203 404.956 C 203 402.030, 202.388 400.664, 200.365 399.073 C 196.571 396.088, 193.562 396.497, 189.003 400.616 M 313.455 399.455 C 309.689 403.220, 310.160 407.395, 314.882 412.118 C 319.425 416.660, 322.631 417.081, 326.611 413.658 C 330.844 410.017, 330.367 405.665, 325.205 400.851 C 320.349 396.321, 316.988 395.922, 313.455 399.455 M 251.073 425.635 C 247.836 429.750, 248.226 436.380, 251.923 440.077 C 253.531 441.685, 255.815 443, 257 443 C 258.185 443, 260.469 441.685, 262.077 440.077 C 264.430 437.724, 265 436.288, 265 432.712 C 265 426.478, 262.135 423, 257 423 C 254.027 423, 252.671 423.602, 251.073 425.635" stroke="none" fill="black" fill-rule="evenodd"/>
</svg>