<svg xml:space="preserve" viewBox="0 0 100 100" y="0" x="0" xmlns="http://www.w3.org/2000/svg" id="圖層_1" version="1.1" style="height: 100%; width: 100%; background: rgba(255, 255, 255, 0);" width="137px" height="137px"><g class="ldl-scale" style="transform-origin: 50% 50%; transform: rotate(0deg) scale(0.8, 0.8);"><g class="ldl-ani"><g class="ldl-layer"><g class="ldl-ani" style="transform-origin: 50px 50px; transform: matrix(1, 0, 0, 1, 0, 0); animation: 4.54545s linear -2.72727s infinite normal forwards running tremble-23f7e997-87d7-4b8f-b8cd-32702563dfb4;"><path fill="#d96d6d" d="M77.391 35.505c-4.157-4.488-9.643-7.22-15.66-7.22-4.857 0-9.369 1.779-13.115 4.825-3.746-3.046-8.258-4.825-13.115-4.825-12.979 0-23.5 12.696-23.5 28.357C12 72.304 22.522 85 35.5 85c4.857 0 13.115-3.29 13.115-3.29s3.307 1.316 6.966 2.283c2.125.562 4.366 1.007 6.15 1.007 12.979 0 23.5-12.696 23.5-28.357 0-8.401-3.03-15.946-7.84-21.138z" style="fill: rgb(217, 109, 109);"></path></g></g><g class="ldl-layer"><g class="ldl-ani" style="transform-origin: 50px 50px; transform: matrix(1, 0, 0, 1, 0, 0); animation: 4.54545s linear -3.18182s infinite normal forwards running tremble-23f7e997-87d7-4b8f-b8cd-32702563dfb4;"><path opacity=".2" d="M77.391 35.505a39.619 39.619 0 0 1 1.913 12.177c0 16.231-9.757 30.177-23.722 36.312 2.124.561 4.365 1.006 6.149 1.006 12.979 0 23.5-12.696 23.5-28.357 0-8.401-3.03-15.946-7.84-21.138z" style="fill: rgb(0, 0, 0);"></path></g></g><g class="ldl-layer"><g class="ldl-ani" style="transform-origin: 50px 50px; transform: matrix(1, 0, 0, 1, 0, 0); animation: 4.54545s linear -3.63636s infinite normal forwards running tremble-23f7e997-87d7-4b8f-b8cd-32702563dfb4;"><path stroke-miterlimit="10" stroke-linecap="round" stroke-width="5.703" stroke="#fff" fill="#fff" d="M25.92 41.916c-4.215 2.834-6.175 11.091-5.009 14.503" style="fill: rgb(255, 255, 255); stroke: rgb(255, 255, 255);"></path></g></g><g class="ldl-layer"><g class="ldl-ani" style="transform-origin: 50px 50px; transform: matrix(1, 0, 0, 1, 0, 0); animation: 4.54545s linear -4.09091s infinite normal forwards running tremble-23f7e997-87d7-4b8f-b8cd-32702563dfb4;"><circle r="3.284" fill="#fff" cy="66.037" cx="23.486" transform="rotate(-30.356 23.485 66.033)" style="fill: rgb(255, 255, 255);"></circle></g></g><g class="ldl-layer"><g class="ldl-ani" style="transform-origin: 50px 50px; transform: matrix(1, 0, 0, 1, 0, 0); animation: 4.54545s linear -4.54545s infinite normal forwards running tremble-23f7e997-87d7-4b8f-b8cd-32702563dfb4;"><path fill="#009245" d="M70.667 22.735l-18.069 1.856c.955-3.165 2.903-6.062 5.527-8.007a3 3 0 1 0-3.572-4.82c-4.249 3.148-7.169 7.9-8.198 13.051C40.92 24.275 28 22.735 28 22.735l13 9.551s-4.051 11.996-2.692 12.522 10.308-7.367 10.308-7.367l10.718 7.392L57 32.286l13.667-9.551z" style="fill: rgb(0, 146, 69);"></path></g></g><metadata xmlns:d="https://loading.io/stock/">
<d:name>tomato</d:name>
<d:tags>tomato,fruit</d:tags>
<d:license>by</d:license>
<d:slug>et1a89</d:slug>
</metadata></g></g></svg>